<?xml version="1.0" ?><!DOCTYPE svg  PUBLIC '-//W3C//DTD SVG 1.1//EN'  'http://www.w3.org/Graphics/SVG/1.1/DTD/svg11.dtd'><svg height="42px" style="fill-rule:evenodd;clip-rule:evenodd;stroke-linejoin:round;stroke-miterlimit:2;" version="1.1" width="42px" xml:space="preserve" xmlns="http://www.w3.org/2000/svg" xmlns:serif="http://www.serif.com/" xmlns:xlink="http://www.w3.org/1999/xlink"><path d="M4,5l0,32c0,0.552 0.448,1 1,1l32,-0c0.552,-0 1,-0.448 1,-1c-0,-0.552 -0.448,-1 -1,-1l-31,-0c0,0 0,-31 0,-31c0,-0.552 -0.448,-1 -1,-1c-0.552,-0 -1,0.448 -1,1Z"/><path d="M14,24c0,-0.552 -0.448,-1 -1,-1l-4,-0c-0.552,0 -1,0.448 -1,1l0,9c0,0.552 0.448,1 1,1l4,-0c0.552,-0 1,-0.448 1,-1l0,-9Zm-2,1l0,7c0,-0 -2,-0 -2,-0c-0,-0 0,-7 0,-7l2,0Z"/><path d="M22,20c0,-0.552 -0.448,-1 -1,-1l-4,-0c-0.552,0 -1,0.448 -1,1l0,13c0,0.552 0.448,1 1,1l4,0c0.552,0 1,-0.448 1,-1l0,-13Zm-2,1l0,11c0,0 -2,0 -2,0c0,0 0,-11 0,-11l2,-0Z"/><path d="M30,16c0,-0.552 -0.448,-1 -1,-1l-4,-0c-0.552,-0 -1,0.448 -1,1l0,17c0,0.552 0.448,1 1,1l4,0c0.552,0 1,-0.448 1,-1l0,-17Zm-2,1l0,15c0,0 -2,0 -2,0c0,0 0,-15 0,-15l2,-0Z"/><path d="M38,12c0,-0.552 -0.448,-1 -1,-1l-4,0c-0.552,0 -1,0.448 -1,1l0,21c0,0.552 0.448,1 1,1l4,0c0.552,0 1,-0.448 1,-1l0,-21Zm-2,1l0,19c0,0 -2,0 -2,0c-0,0 0,-19 0,-19l2,-0Z"/></svg>